<svg xmlns="http://www.w3.org/2000/svg" width="80" height="18" viewBox="0 0 80 18" fill="none">
<path d="M7.776 10.392H2.816L1.872 13H0.304L4.48 1.928H6.128L10.288 13H8.72L7.776 10.392ZM7.36 9.256L5.296 3.56L3.232 9.256H7.36ZM19.5698 4.216V13H18.1138V10.936C17.8898 11.6507 17.4898 12.2 16.9138 12.584C16.3484 12.9573 15.6871 13.144 14.9298 13.144C13.9164 13.144 13.0951 12.8187 12.4658 12.168C11.8364 11.5067 11.5218 10.5627 11.5218 9.336V4.216H12.9778V9.192C12.9778 10.0667 13.2018 10.744 13.6498 11.224C14.0978 11.6933 14.7058 11.928 15.4738 11.928C16.2738 11.928 16.9138 11.672 17.3938 11.16C17.8738 10.6373 18.1138 9.88 18.1138 8.888V4.216H19.5698ZM25.5024 4.104C26.3557 4.104 27.0757 4.31733 27.6624 4.744C28.2597 5.17067 28.6757 5.74133 28.9104 6.456V4.216H30.3664V13.144C30.3664 13.9547 30.1957 14.6747 29.8544 15.304C29.513 15.9333 29.033 16.424 28.4144 16.776C27.7957 17.128 27.0757 17.304 26.2544 17.304C25.0704 17.304 24.105 17.016 23.3584 16.44C22.6117 15.8747 22.137 15.1067 21.9344 14.136H23.3744C23.545 14.7227 23.865 15.1813 24.3344 15.512C24.8144 15.8533 25.4277 16.024 26.1744 16.024C26.9637 16.024 27.6144 15.768 28.1264 15.256C28.649 14.7547 28.9104 14.0507 28.9104 13.144V10.76C28.6757 11.4747 28.2597 12.0453 27.6624 12.472C27.0757 12.8987 26.3557 13.112 25.5024 13.112C24.7237 13.112 24.0304 12.9307 23.4224 12.568C22.8144 12.2053 22.3344 11.688 21.9824 11.016C21.641 10.3333 21.4704 9.53333 21.4704 8.616C21.4704 7.69867 21.641 6.89867 21.9824 6.216C22.3344 5.53333 22.8144 5.01067 23.4224 4.648C24.0304 4.28533 24.7237 4.104 25.5024 4.104ZM25.9184 5.4C25.0224 5.4 24.3024 5.688 23.7584 6.264C23.225 6.82933 22.9584 7.61333 22.9584 8.616C22.9584 9.61867 23.225 10.408 23.7584 10.984C24.3024 11.5493 25.0224 11.832 25.9184 11.832C26.4944 11.832 27.0064 11.6987 27.4544 11.432C27.913 11.1653 28.2704 10.792 28.5264 10.312C28.7824 9.82133 28.9104 9.256 28.9104 8.616C28.9104 7.976 28.7824 7.41067 28.5264 6.92C28.2704 6.42933 27.913 6.056 27.4544 5.8C27.0064 5.53333 26.4944 5.4 25.9184 5.4ZM40.4916 4.216V13H39.0356V10.936C38.8116 11.6507 38.4116 12.2 37.8356 12.584C37.2703 12.9573 36.609 13.144 35.8516 13.144C34.8383 13.144 34.017 12.8187 33.3876 12.168C32.7583 11.5067 32.4436 10.5627 32.4436 9.336V4.216H33.8996V9.192C33.8996 10.0667 34.1236 10.744 34.5716 11.224C35.0196 11.6933 35.6276 11.928 36.3956 11.928C37.1956 11.928 37.8356 11.672 38.3156 11.16C38.7956 10.6373 39.0356 9.88 39.0356 8.888V4.216H40.4916ZM45.5763 4.104C46.5683 4.104 47.3629 4.36533 47.9603 4.888C48.5683 5.4 48.9363 6.09333 49.0643 6.968H47.6723C47.6083 6.44533 47.3896 6.01867 47.0163 5.688C46.6536 5.34667 46.1629 5.176 45.5443 5.176C45.0216 5.176 44.6109 5.304 44.3123 5.56C44.0243 5.80533 43.8803 6.14133 43.8803 6.568C43.8803 6.888 43.9763 7.14933 44.1683 7.352C44.3709 7.544 44.6163 7.69333 44.9043 7.8C45.2029 7.896 45.6083 8.00267 46.1203 8.12C46.7709 8.26933 47.2936 8.424 47.6883 8.584C48.0936 8.73333 48.4349 8.97867 48.7123 9.32C49.0003 9.66133 49.1443 10.12 49.1443 10.696C49.1443 11.4107 48.8723 11.992 48.3283 12.44C47.7949 12.888 47.0803 13.112 46.1843 13.112C45.1389 13.112 44.2856 12.8613 43.6243 12.36C42.9629 11.8587 42.5736 11.16 42.4563 10.264H43.8643C43.9176 10.7973 44.1469 11.2293 44.5523 11.56C44.9683 11.8907 45.5123 12.056 46.1843 12.056C46.6856 12.056 47.0749 11.928 47.3523 11.672C47.6403 11.416 47.7843 11.08 47.7843 10.664C47.7843 10.3227 47.6829 10.0507 47.4803 9.848C47.2776 9.64533 47.0269 9.49067 46.7283 9.384C46.4296 9.27733 46.0189 9.16533 45.4963 9.048C44.8456 8.89867 44.3229 8.74933 43.9283 8.6C43.5443 8.45067 43.2136 8.216 42.9363 7.896C42.6696 7.56533 42.5363 7.12267 42.5363 6.568C42.5363 5.832 42.8083 5.24 43.3523 4.792C43.8963 4.33333 44.6376 4.104 45.5763 4.104ZM55.2819 11.72V13H54.1939C53.2979 13 52.6259 12.7867 52.1779 12.36C51.7405 11.9333 51.5219 11.2187 51.5219 10.216V5.48H50.2099V4.216H51.5219V2.024H52.9939V4.216H55.2659V5.48H52.9939V10.248C52.9939 10.8133 53.0952 11.2027 53.2979 11.416C53.5112 11.6187 53.8739 11.72 54.3859 11.72H55.2819ZM56.8026 1.64C56.8026 1.37333 56.8933 1.16 57.0746 0.999999C57.256 0.829333 57.496 0.743999 57.7946 0.743999C58.0933 0.743999 58.3333 0.829333 58.5146 0.999999C58.696 1.16 58.7866 1.37333 58.7866 1.64C58.7866 1.90667 58.696 2.12533 58.5146 2.296C58.3333 2.456 58.0933 2.536 57.7946 2.536C57.496 2.536 57.256 2.456 57.0746 2.296C56.8933 2.12533 56.8026 1.90667 56.8026 1.64ZM58.5146 4.216V13H57.0586V4.216H58.5146ZM65.4795 4.072C66.5035 4.072 67.3302 4.40267 67.9595 5.064C68.5888 5.71467 68.9035 6.65867 68.9035 7.896V13H67.4475V8.024C67.4475 7.14933 67.2235 6.47733 66.7755 6.008C66.3275 5.53867 65.7195 5.304 64.9515 5.304C64.1515 5.304 63.5115 5.56533 63.0315 6.088C62.5515 6.6 62.3115 7.352 62.3115 8.344V13H60.8555V4.216H62.3115V6.296C62.5355 5.58133 62.9302 5.032 63.4955 4.648C64.0715 4.264 64.7328 4.072 65.4795 4.072ZM79.2168 8.12C79.2168 8.42933 79.1954 8.696 79.1528 8.92H72.1288C72.1608 9.92267 72.4434 10.6747 72.9768 11.176C73.5208 11.6773 74.1821 11.928 74.9608 11.928C75.6648 11.928 76.2514 11.752 76.7208 11.4C77.2008 11.0373 77.4941 10.5573 77.6008 9.96H79.1528C79.0461 10.568 78.8061 11.112 78.4328 11.592C78.0701 12.072 77.5954 12.4453 77.0088 12.712C76.4221 12.9787 75.7608 13.112 75.0248 13.112C74.1821 13.112 73.4354 12.9307 72.7848 12.568C72.1341 12.2053 71.6221 11.688 71.2488 11.016C70.8861 10.3333 70.7048 9.53333 70.7048 8.616C70.7048 7.69867 70.8861 6.89867 71.2488 6.216C71.6221 5.53333 72.1341 5.01067 72.7848 4.648C73.4354 4.28533 74.1821 4.104 75.0248 4.104C75.8781 4.104 76.6194 4.28533 77.2488 4.648C77.8888 5.01067 78.3741 5.496 78.7048 6.104C79.0461 6.712 79.2168 7.384 79.2168 8.12ZM77.7448 8.216C77.7768 7.56533 77.6701 7.02133 77.4248 6.584C77.1794 6.14667 76.8434 5.82133 76.4168 5.608C75.9901 5.39467 75.5261 5.288 75.0248 5.288C74.2248 5.288 73.5528 5.53867 73.0088 6.04C72.4648 6.53067 72.1714 7.256 72.1288 8.216H77.7448Z" fill="black"/>
</svg>