<svg width="24" height="24" viewBox="0 0 24 24" fill="none" xmlns="http://www.w3.org/2000/svg"><path d="M21.5331 7.11165C21.5483 7.32484 21.5483 7.53807 21.5483 7.75126C21.5483 14.2538 16.5991 21.7462 7.55333 21.7462C4.7665 21.7462 2.17768 20.9391 0 19.5381C0.395955 19.5838 0.776628 19.599 1.18782 19.599C3.48728 19.599 5.60407 18.8224 7.29444 17.4975C5.13199 17.4518 3.31979 16.0356 2.69542 14.0863C3.00001 14.132 3.30456 14.1624 3.62439 14.1624C4.066 14.1624 4.50766 14.1015 4.9188 13.9949C2.66499 13.538 0.974582 11.5584 0.974582 9.1675V9.10661C1.62938 9.47209 2.39087 9.70052 3.19792 9.73094C1.87304 8.84767 1.00505 7.34007 1.00505 5.63447C1.00505 4.72078 1.24866 3.88321 1.67508 3.15224C4.09642 6.13702 7.73605 8.08623 11.8172 8.29946C11.7411 7.93398 11.6954 7.55331 11.6954 7.17259C11.6954 4.46189 13.8883 2.25378 16.6142 2.25378C18.0304 2.25378 19.3096 2.84769 20.2081 3.80709C21.3198 3.5939 22.3858 3.18271 23.33 2.61927C22.9644 3.76143 22.1878 4.72082 21.1675 5.32992C22.1574 5.22337 23.1168 4.9492 24 4.56853C23.3301 5.54311 22.4924 6.4111 21.5331 7.11165Z" fill="currentColor"></path></svg>
